<svg width="16" height="16" viewBox="0 0 16 16" fill="none" xmlns="http://www.w3.org/2000/svg">
<path d="M10.4426 7.83208C10.4426 9.26989 9.26989 10.4426 7.83209 10.4426C6.39428 10.4426 5.2216 9.26989 5.2216 7.83208C5.2216 6.39428 6.39428 5.2216 7.83209 5.2216C9.26989 5.2216 10.4426 6.39428 10.4426 7.83208ZM11.8498 7.83208C11.8498 5.6091 10.0551 3.81439 7.83209 3.81439C5.6091 3.81439 3.81439 5.6091 3.81439 7.83208C3.81439 10.0551 5.6091 11.8498 7.83209 11.8498C10.0551 11.8498 11.8498 10.0551 11.8498 7.83208ZM12.9511 3.65124C12.9511 3.13118 12.533 2.71309 12.0129 2.71309C11.4929 2.71309 11.0748 3.13118 11.0748 3.65124C11.0748 4.17129 11.4929 4.58937 12.0129 4.58937C12.533 4.58937 12.9511 4.17129 12.9511 3.65124ZM7.83209 1.40785C8.97417 1.40785 11.4215 1.31608 12.4514 1.72396C12.8083 1.86673 13.0734 2.04007 13.3488 2.3154C13.6241 2.59072 13.7975 2.85585 13.9402 3.21276C14.3481 4.24267 14.2563 6.69 14.2563 7.83208C14.2563 8.97417 14.3481 11.4215 13.9402 12.4514C13.7975 12.8083 13.6241 13.0734 13.3488 13.3488C13.0734 13.6241 12.8083 13.7974 12.4514 13.9402C11.4215 14.3481 8.97417 14.2563 7.83209 14.2563C6.69 14.2563 4.24267 14.3481 3.21276 13.9402C2.85585 13.7974 2.59073 13.6241 2.3154 13.3488C2.04008 13.0734 1.86673 12.8083 1.72396 12.4514C1.31608 11.4215 1.40785 8.97417 1.40785 7.83208C1.40785 6.69 1.31608 4.24267 1.72396 3.21276C1.86673 2.85585 2.04008 2.59072 2.3154 2.3154C2.59073 2.04007 2.85585 1.86673 3.21276 1.72396C4.24267 1.31608 6.69 1.40785 7.83209 1.40785ZM15.6635 7.83208C15.6635 6.75118 15.6737 5.68047 15.6126 4.59957C15.5514 3.34532 15.2658 2.23382 14.3481 1.31607C13.4303 0.398323 12.3189 0.112805 11.0646 0.0516211C9.9837 -0.00955819 8.91299 0.000637085 7.83209 0.000637085C6.75119 0.000637085 5.68048 -0.00954906 4.59958 0.0516211C3.34532 0.112805 2.23382 0.398323 1.31608 1.31607C0.398327 2.23382 0.112808 3.34532 0.0516246 4.59957C-0.00955878 5.68047 0.000637119 6.75118 0.000637119 7.83208C0.000637119 8.91299 -0.00955833 9.9837 0.0516246 11.0646C0.112808 12.3189 0.398327 13.4303 1.31608 14.3481C2.23382 15.2658 3.34532 15.5514 4.59958 15.6125C5.68048 15.6737 6.75119 15.6635 7.83209 15.6635C8.91299 15.6635 9.9837 15.6737 11.0646 15.6125C12.3189 15.5514 13.4303 15.2658 14.3481 14.3481C15.2658 13.4303 15.5514 12.3189 15.6126 11.0646C15.6737 9.9837 15.6635 8.91299 15.6635 7.83208Z" fill="#ECA078"/>
</svg>
