<svg width="11" height="19" viewBox="0 0 11 19" fill="none" xmlns="http://www.w3.org/2000/svg">
<path d="M5.49481 9.24886C8.04411 9.24886 10.1243 7.17883 10.1243 4.62953C10.1243 2.07003 8.04411 0 5.49481 0C2.94551 0 0.86528 2.07003 0.86528 4.62953C0.86528 7.17883 2.94551 9.24886 5.49481 9.24886ZM5.49481 2.34535C6.74906 2.34535 7.76879 3.36508 7.76879 4.62953C7.76879 5.88379 6.74906 6.9035 5.49481 6.9035C4.24055 6.9035 3.22083 5.88379 3.22083 4.62953C3.22083 3.36508 4.24055 2.34535 5.49481 2.34535ZM10.8279 9.80971C10.5628 9.28965 9.83882 8.85116 8.88028 9.60576C8.88028 9.60576 7.58524 10.6357 5.49481 10.6357C3.40438 10.6357 2.10934 9.60576 2.10934 9.60576C1.1508 8.85116 0.426801 9.28965 0.161674 9.80971C-0.287003 10.7275 0.222855 11.1659 1.38534 11.9205C2.37446 12.5528 3.74089 12.7873 4.61785 12.8791L3.88365 13.6133C2.84354 14.6432 1.85441 15.6425 1.161 16.3359C0.742914 16.754 0.742914 17.427 1.161 17.8349L1.28336 17.9675C1.69125 18.3754 2.36427 18.3754 2.78235 17.9675L5.50501 15.2346C6.54512 16.2747 7.54444 17.2741 8.22766 17.9675C8.64575 18.3754 9.31876 18.3754 9.73684 17.9675L9.85921 17.8349C10.2671 17.427 10.2671 16.754 9.85921 16.3359L7.13656 13.6133L6.39216 12.8791C7.27932 12.7873 8.62535 12.5426 9.60428 11.9205C10.7668 11.1659 11.2766 10.7275 10.8279 9.80971Z" fill="#ECA078"/>
</svg>
