<svg width="19" height="11" viewBox="0 0 19 11" fill="none" xmlns="http://www.w3.org/2000/svg">
<path d="M18.251 0.754095C18.251 0.754095 18.1178 0.373461 17.2899 0.478137L14.5494 0.497151C14.34 0.468588 14.1878 0.554244 14.1878 0.554244C14.1878 0.554244 14.026 0.63989 13.9499 0.849236C13.5026 2.00064 12.9317 2.99028 12.9317 2.99028C11.7137 5.06472 11.2188 5.17891 11.019 5.04569C10.5527 4.75071 10.6764 3.8467 10.6764 3.19963C10.6764 1.18228 10.9809 0.344898 10.0769 0.126032C9.78196 0.0594212 9.5631 0.0118469 8.79232 0.00232749C7.81219 -0.00717915 6.98432 0.00232785 6.51805 0.230709C6.20403 0.38296 5.96614 0.725531 6.10887 0.744565C6.28967 0.773128 6.69885 0.858747 6.91771 1.15374C6.91771 1.15374 7.15561 1.54389 7.19367 2.4003C7.29834 4.76973 6.81304 5.06472 6.81304 5.06472C6.44192 5.26455 5.79485 4.9315 4.84327 2.97125C4.84327 2.97125 4.29136 2.00064 3.86315 0.934873C3.78702 0.735042 3.63477 0.630371 3.63477 0.630371C3.63477 0.630371 3.46349 0.497149 3.21608 0.459084L0.608753 0.478098C0.209091 0.478098 0.0663533 0.658896 0.0663533 0.658896C0.0663533 0.658896 -0.0763815 0.811151 0.0568398 1.12517C2.09322 5.9116 4.41506 8.30958 4.41506 8.30958C4.41506 8.30958 6.53708 10.5268 8.94457 10.3745H10.0389C10.3719 10.3459 10.5432 10.1652 10.5432 10.1652C10.5432 10.1652 10.6955 9.99387 10.686 9.67985C10.6669 8.21442 11.3521 7.99556 11.3521 7.99556C12.0182 7.78621 12.8746 9.41341 13.7881 10.0414C13.7881 10.0414 14.4828 10.5172 15.0061 10.4126L17.4422 10.3745C18.7268 10.365 18.1178 9.29922 18.1178 9.29922C18.0702 9.21358 17.7657 8.55699 16.3003 7.19623C14.7777 5.77838 14.9776 6.00676 16.8236 3.55169C17.9465 2.05771 18.3937 1.1442 18.251 0.75405V0.754095Z" fill="#ECA078"/>
</svg>
